<svg xmlns="http://www.w3.org/2000/svg" width="50" height="38" viewBox="0 0 50 38" fill="none">
  <path d="M0.15625 5.10938C0.471307 3.72888 1.2458 2.49629 2.35288 1.61346C3.45996 0.730637 4.83401 0.249905 6.25 0.25H43.75C45.166 0.249905 46.54 0.730637 47.6471 1.61346C48.7542 2.49629 49.5287 3.72888 49.8438 5.10938L25 20.2937L0.15625 5.10938ZM0 8.67813V30.8781L18.1344 19.7594L0 8.67813ZM21.1281 21.5938L0.596875 34.1781C1.10415 35.2478 1.90477 36.1513 2.90557 36.7837C3.90636 37.416 5.06617 37.7511 6.25 37.75H43.75C44.9336 37.7503 46.093 37.4144 47.0932 36.7815C48.0935 36.1486 48.8934 35.2447 49.4 34.175L28.8687 21.5906L25 23.9563L21.1281 21.5938ZM31.8656 19.7625L50 30.8781V8.67813L31.8656 19.7594V19.7625Z" fill="white"/>
</svg>