<svg xmlns="http://www.w3.org/2000/svg" width="52" height="54" viewBox="0 0 52 54" fill="none">
  <path d="M26.0112 13.5234C18.913 13.5234 13.1876 19.5352 13.1876 26.9883C13.1876 34.4414 18.913 40.4531 26.0112 40.4531C33.1094 40.4531 38.8349 34.4414 38.8349 26.9883C38.8349 19.5352 33.1094 13.5234 26.0112 13.5234ZM26.0112 35.7422C21.4242 35.7422 17.6742 31.8164 17.6742 26.9883C17.6742 22.1602 21.413 18.2344 26.0112 18.2344C30.6094 18.2344 34.3483 22.1602 34.3483 26.9883C34.3483 31.8164 30.5983 35.7422 26.0112 35.7422ZM42.3505 12.9727C42.3505 14.7188 41.0112 16.1133 39.3594 16.1133C37.6965 16.1133 36.3684 14.707 36.3684 12.9727C36.3684 11.2383 37.7077 9.83203 39.3594 9.83203C41.0112 9.83203 42.3505 11.2383 42.3505 12.9727ZM50.8438 16.1602C50.6541 11.9531 49.7389 8.22656 46.8036 5.15625C43.8795 2.08594 40.3304 1.125 36.3237 0.914062C32.1943 0.667969 19.817 0.667969 15.6876 0.914062C11.692 1.11328 8.14293 2.07422 5.20766 5.14453C2.27239 8.21484 1.36837 11.9414 1.16748 16.1484C0.933105 20.4844 0.933105 33.4805 1.16748 37.8164C1.35721 42.0234 2.27239 45.75 5.20766 48.8203C8.14293 51.8906 11.6809 52.8516 15.6876 53.0625C19.817 53.3086 32.1943 53.3086 36.3237 53.0625C40.3304 52.8633 43.8795 51.9023 46.8036 48.8203C49.7277 45.75 50.6429 42.0234 50.8438 37.8164C51.0782 33.4805 51.0782 20.4961 50.8438 16.1602ZM45.509 42.4688C44.6385 44.7656 42.9532 46.5352 40.7545 47.4609C37.4621 48.832 29.6496 48.5156 26.0112 48.5156C22.3728 48.5156 14.5492 48.8203 11.2679 47.4609C9.08043 46.5469 7.39516 44.7773 6.51346 42.4688C5.20766 39.0117 5.509 30.8086 5.509 26.9883C5.509 23.168 5.21882 14.9531 6.51346 11.5078C7.384 9.21094 9.06927 7.44141 11.2679 6.51562C14.5603 5.14453 22.3728 5.46094 26.0112 5.46094C29.6496 5.46094 37.4733 5.15625 40.7545 6.51562C42.942 7.42969 44.6273 9.19922 45.509 11.5078C46.8148 14.9648 46.5135 23.168 46.5135 26.9883C46.5135 30.8086 46.8148 39.0234 45.509 42.4688Z" fill="white"/>
</svg>