<svg width="78" height="78" viewBox="0 0 78 78" fill="none" xmlns="http://www.w3.org/2000/svg">
<path d="M35.75 58.5H25.8082C24.843 54.3627 20.488 50.9795 18.7005 48.75C15.6396 44.9257 13.7213 40.3145 13.1666 35.4476C12.6119 30.5807 13.4433 25.6562 15.5651 21.2411C17.6868 16.8261 21.0127 13.1003 25.1594 10.4929C29.3061 7.88543 34.1051 6.50245 39.0035 6.50324C43.9019 6.50402 48.7004 7.88854 52.8463 10.4973C56.9922 13.1061 60.3169 16.833 62.4372 21.2487C64.5576 25.6643 65.3874 30.5892 64.8311 35.4559C64.2749 40.3226 62.3551 44.9332 59.293 48.7565C57.5055 50.9827 53.157 54.366 52.1917 58.5H42.25V42.25H35.75V58.5ZM52 65V68.25C52 69.9739 51.3152 71.6272 50.0962 72.8462C48.8772 74.0652 47.2239 74.75 45.5 74.75H32.5C30.7761 74.75 29.1228 74.0652 27.9038 72.8462C26.6848 71.6272 26 69.9739 26 68.25V65H52Z" fill="black"/>
</svg>
