<svg xmlns="http://www.w3.org/2000/svg" width="52" height="54" viewBox="0 0 52 54" fill="none">
  <path d="M48.2857 0.75H3.70268C1.65982 0.75 0 2.44922 0 4.53516V49.4648C0 51.5508 1.65982 53.25 3.70268 53.25H48.2857C50.3286 53.25 52 51.5508 52 49.4648V4.53516C52 2.44922 50.3286 0.75 48.2857 0.75ZM15.7161 45.75H8.00893V20.6953H15.7277V45.75H15.7161ZM11.8625 17.2734C9.39018 17.2734 7.39375 15.2461 7.39375 12.7617C7.39375 10.2773 9.39018 8.25 11.8625 8.25C14.3232 8.25 16.3312 10.2773 16.3312 12.7617C16.3312 15.2578 14.3348 17.2734 11.8625 17.2734ZM44.6062 45.75H36.8991V33.5625C36.8991 30.6562 36.8411 26.918 32.8946 26.918C28.8786 26.918 28.2634 30.082 28.2634 33.3516V45.75H20.5562V20.6953H27.95V24.1172H28.0545C29.0875 22.1484 31.6063 20.0742 35.3554 20.0742C43.1554 20.0742 44.6062 25.2656 44.6062 32.0156V45.75Z" fill="white"/>
</svg>