<svg width="63" height="63" viewBox="0 0 63 63" fill="none" xmlns="http://www.w3.org/2000/svg">
<path d="M55.5 30H51V18C51 16.4087 50.3679 14.8826 49.2426 13.7574C48.1174 12.6321 46.5913 12 45 12H33V7.5C33 5.51088 32.2098 3.60322 30.8033 2.1967C29.3968 0.790176 27.4891 0 25.5 0C23.5109 0 21.6032 0.790176 20.1967 2.1967C18.7902 3.60322 18 5.51088 18 7.5V12H6C4.4087 12 2.88258 12.6321 1.75736 13.7574C0.632141 14.8826 0 16.4087 0 18V29.4H4.5C9 29.4 12.6 33 12.6 37.5C12.6 42 9 45.6 4.5 45.6H0V57C0 58.5913 0.632141 60.1174 1.75736 61.2426C2.88258 62.3679 4.4087 63 6 63H17.4V58.5C17.4 54 21 50.4 25.5 50.4C30 50.4 33.6 54 33.6 58.5V63H45C46.5913 63 48.1174 62.3679 49.2426 61.2426C50.3679 60.1174 51 58.5913 51 57V45H55.5C57.4891 45 59.3968 44.2098 60.8033 42.8033C62.2098 41.3968 63 39.4891 63 37.5C63 35.5109 62.2098 33.6032 60.8033 32.1967C59.3968 30.7902 57.4891 30 55.5 30Z" fill="black"/>
</svg>
