<svg width="337" height="372" viewBox="0 0 337 372" fill="none" xmlns="http://www.w3.org/2000/svg">
<path fill-rule="evenodd" clip-rule="evenodd" d="M84.4984 74.6465C85.1521 74.1376 85.2694 73.1951 84.7604 72.5415C84.2515 71.8878 83.309 71.7705 82.6553 72.2795C52.0466 96.1122 17.913 131.095 15.246 172.982C14.0839 191.234 23.81 205.248 37.0243 215.813C50.2235 226.365 67.0824 233.634 80.6885 238.461C90.4699 241.93 100.5 244.778 110.681 247.064C110.51 263.243 114.265 279.661 120.663 292.534C143.005 337.483 191.794 347 236.951 350.172C258.303 351.672 280.585 352.38 302.033 350.488C307.221 350.03 312.521 348.939 317.734 347.726C319.421 347.334 321.092 346.93 322.748 346.53L322.75 346.53C323.781 346.281 324.808 346.033 325.828 345.79C324.737 346.694 323.689 347.664 322.686 348.654C321.048 350.269 319.488 351.979 318.024 353.595L317.69 353.965L317.689 353.966C316.341 355.455 315.084 356.843 313.889 358.038C309.203 362.724 305.819 365.08 300.432 368.671C299.743 369.13 299.557 370.062 300.016 370.751C300.476 371.44 301.407 371.627 302.096 371.167C307.534 367.542 311.113 365.056 316.01 360.159C317.261 358.908 318.568 357.465 319.902 355.991L320.247 355.609C321.713 353.991 323.222 352.339 324.793 350.789C327.964 347.661 331.227 345.119 334.616 344.15C335.031 344.032 335.419 343.892 335.75 343.717C336.052 343.557 336.476 343.281 336.748 342.809C337.086 342.22 337.058 341.562 336.782 341.03C336.557 340.598 336.208 340.315 335.962 340.145C335.452 339.793 334.76 339.51 334.077 339.277C333.362 339.033 332.529 338.802 331.658 338.589C328.186 337.737 323.734 337.068 322.62 336.924C318.45 336.386 313.771 333.269 309.509 329.09C305.292 324.954 301.716 320.009 299.728 316.231C299.342 315.498 298.435 315.216 297.702 315.602C296.968 315.988 296.687 316.895 297.073 317.628C299.214 321.695 302.98 326.889 307.409 331.232C311.792 335.53 317.063 339.232 322.237 339.899C323.297 340.036 327.625 340.689 330.943 341.502C330.98 341.511 331.017 341.521 331.054 341.53C328.07 342.159 325.02 342.895 321.972 343.631L321.971 343.631L321.964 343.633C320.324 344.029 318.684 344.425 317.055 344.804C311.873 346.01 306.74 347.061 301.769 347.499C280.551 349.372 258.449 348.674 237.161 347.179C191.971 344.005 144.877 334.511 123.35 291.199C117.256 278.939 113.611 263.249 113.677 247.72C137.828 252.869 162.768 254.905 187.187 254.619C187.695 254.613 188.215 254.607 188.748 254.602H188.748C196.32 254.522 206.277 254.416 215.671 252.649C225.691 250.764 235.436 246.927 240.923 238.844C245.498 232.104 247.015 225.624 246.237 219.593C245.462 213.591 242.435 208.207 238.23 203.579C229.851 194.356 216.542 187.853 205.6 185.07C192.827 181.821 177.19 180.463 162.471 182.741C147.761 185.018 133.805 190.957 124.652 202.457C115.617 213.809 111.397 228.761 110.761 244.007C100.889 241.768 91.1688 238.995 81.6914 235.633C68.188 230.843 51.7041 223.708 38.8976 213.469C26.1061 203.243 17.1634 190.081 18.24 173.173C20.8166 132.704 53.9356 98.4435 84.4984 74.6465ZM187.152 251.619C162.72 251.905 137.809 249.848 113.738 244.665C114.278 229.663 118.368 215.17 126.999 204.325C135.522 193.617 148.661 187.915 162.93 185.706C177.191 183.499 192.418 184.812 204.861 187.977C215.417 190.663 228.137 196.931 236.01 205.596C239.931 209.912 242.586 214.751 243.261 219.978C243.933 225.177 242.668 230.932 238.441 237.159C233.64 244.231 224.898 247.861 215.117 249.701C205.993 251.417 196.284 251.521 188.677 251.602H188.676C188.158 251.608 187.65 251.613 187.152 251.619ZM334.286 342.636C334.286 342.636 334.282 342.633 334.275 342.626C334.283 342.632 334.287 342.636 334.286 342.636ZM334.367 341.054C334.376 341.047 334.381 341.044 334.382 341.044C334.382 341.045 334.377 341.048 334.367 341.054Z" fill="white"/>
<path d="M20.8764 12.9222C20.7913 13.1466 20.7199 13.4475 20.6623 13.8249C20.6141 14.1774 20.4899 14.4297 20.2895 14.5819C20.2207 14.6128 20.158 14.7031 20.1012 14.8527C20.0539 14.9774 19.9834 15.0504 19.8897 15.0719L19.517 14.5883C19.1938 14.2375 18.7781 13.9799 18.27 13.8157C17.7868 13.6609 17.258 13.5886 16.6837 13.5989C16.2779 13.6161 15.8485 13.6956 15.3953 13.8374C14.9766 13.9638 14.5562 14.1323 14.134 14.3429C13.7119 14.5535 13.3099 14.786 12.9282 15.0405C12.5464 15.2949 12.2068 15.5511 11.9093 15.809C11.236 16.3807 10.7055 17.1777 10.3177 18.1999C9.95477 19.2316 9.82742 20.6949 9.93561 22.5899C9.86939 22.7644 9.66433 22.929 9.32041 23.0838C9.25163 23.1147 9.16092 23.1659 9.04828 23.2372C8.93565 23.3086 8.84494 23.3597 8.77615 23.3907C8.51048 23.4895 8.32906 23.5918 8.2319 23.6976C8.15967 23.8128 8.05176 23.8717 7.90818 23.8742C7.68035 23.8734 7.55957 23.6279 7.54584 23.1378C7.40577 22.229 7.33964 21.1629 7.34747 19.9395C7.38969 18.7005 7.45383 17.4414 7.5399 16.1621C7.65091 14.8922 7.76792 13.6817 7.89095 12.5304C8.04838 11.3638 8.18945 10.3905 8.31417 9.61071C8.31505 9.38287 8.37353 9.19114 8.48961 9.03554C8.61515 8.85499 8.75143 8.72131 8.89845 8.63448C9.01109 8.56313 9.10781 8.57131 9.18862 8.65901C9.29437 8.75617 9.38464 8.81894 9.45944 8.84732C9.78356 8.97029 9.95937 9.10829 9.98688 9.26133C10.0144 9.41437 10.0776 9.62373 10.1764 9.88941C10.3741 10.4208 10.445 11.0609 10.3891 11.8097C10.3331 12.5586 10.2798 13.451 10.2289 14.487C10.8833 13.9652 11.6403 13.5109 12.5001 13.124C13.3849 12.7466 14.2958 12.4505 15.233 12.2357C16.1796 11.9958 17.1133 11.8652 18.0341 11.8438C18.9549 11.8224 19.8035 11.9162 20.5799 12.1251C20.7389 12.157 20.8447 12.2541 20.8971 12.4166C20.9839 12.5636 20.977 12.7322 20.8764 12.9222ZM30.9614 17.3901C31.0697 17.6308 31.1561 17.8918 31.2206 18.1729C31.2945 18.4291 31.3388 18.6884 31.3534 18.9506C31.3731 19.5 31.2931 20.0115 31.1134 20.4852C30.9681 20.9435 30.5854 21.4258 29.9655 21.9322C29.2768 22.4695 28.506 22.8473 27.6531 23.0656C26.8251 23.2934 26.001 23.323 25.1808 23.1544C24.5944 23.046 24.0459 22.8379 23.5352 22.5301C23.034 22.1973 22.605 21.7493 22.2483 21.1862C22.0514 21.2541 21.8558 21.3938 21.6614 21.6053C21.5015 21.8013 21.3962 22.0038 21.3454 22.2127C21.2629 22.5806 21.2409 23.0144 21.2796 23.5139C21.3526 23.998 21.4854 24.3621 21.678 24.6063C22.0356 24.9416 22.6168 25.1764 23.4216 25.3106C24.2512 25.4542 25.1467 25.5372 26.1079 25.5597C27.1035 25.5666 28.0836 25.5392 29.0483 25.4773C30.0473 25.4 30.8981 25.3378 31.6005 25.2905C31.5438 25.4401 31.4685 25.5257 31.3748 25.5472C31.306 25.5781 31.1981 25.637 31.0511 25.7238C30.8791 25.8012 30.6853 25.8987 30.4694 26.0165C30.2536 26.1343 30.0224 26.2177 29.7756 26.2667C29.4695 26.3217 29.2068 26.4502 28.9876 26.6522C28.7778 26.8293 28.4605 26.9514 28.0358 27.0184C27.4675 27.088 26.882 27.1653 26.2793 27.2504C25.711 27.32 25.1474 27.3771 24.5885 27.4218C24.0391 27.4415 23.4915 27.4192 22.9455 27.3546C22.434 27.2746 21.9508 27.1198 21.496 26.8902C21.1908 26.7174 20.9496 26.5261 20.7725 26.3163C20.6204 26.116 20.442 25.8344 20.2374 25.4715C20.1351 25.2901 20.0079 25.0992 19.8557 24.8989C19.7035 24.6986 19.6012 24.5172 19.5488 24.3547C19.3614 23.5705 19.3254 22.801 19.4406 22.0462C19.5654 21.2664 19.7975 20.5416 20.1372 19.8719C20.5113 19.1867 20.9631 18.5595 21.4928 17.9904C22.0319 17.3963 22.6346 16.8977 23.301 16.4945C23.6733 16.265 24.0954 16.0544 24.5674 15.8627C25.0739 15.6555 25.5863 15.5076 26.1047 15.4191C26.6576 15.3151 27.1992 15.2782 27.7297 15.3083C28.2851 15.3479 28.8074 15.4748 29.2966 15.6889C29.4866 15.7895 29.6375 15.9181 29.7493 16.0745C29.8954 16.2156 30.0493 16.3738 30.2109 16.5492C30.3167 16.6463 30.4379 16.7779 30.5746 16.9438C30.7457 17.0943 30.8746 17.243 30.9614 17.3901ZM29.0397 19.1851C29.075 18.9418 29.0135 18.6903 28.8554 18.4307C28.6972 18.171 28.4999 17.9393 28.2635 17.7355C28.0365 17.5068 27.7906 17.3279 27.5258 17.199C27.261 17.07 27.0568 17.0068 26.9132 17.0093C26.6854 17.0085 26.3965 17.0557 26.0466 17.1511C25.731 17.2311 25.4013 17.3484 25.0574 17.5031C24.7384 17.6673 24.41 17.8565 24.0721 18.0705C23.7686 18.2691 23.5196 18.4741 23.3253 18.6856C23.2471 18.7415 23.1499 18.8472 23.0338 19.0029C22.9521 19.143 22.922 19.2599 22.9435 19.3536C23.1008 19.8411 23.4787 20.1984 24.0771 20.4254C24.6505 20.643 25.3134 20.7376 26.0657 20.7093C26.8429 20.6904 27.4254 20.5834 27.8132 20.3883C27.857 20.3479 27.94 20.2795 28.0621 20.1832C28.2091 20.0964 28.3484 19.9924 28.48 19.8712C28.6115 19.75 28.7306 19.624 28.8372 19.4933C28.9688 19.3721 29.0363 19.2694 29.0397 19.1851ZM44.0191 22.9002C44.0405 23.821 44.0134 24.7947 43.9376 25.8213C43.8868 26.8573 43.7363 27.8555 43.486 28.8158C43.2702 29.7607 42.9391 30.6333 42.4928 31.4337C42.0715 32.2436 41.5057 32.8703 40.7955 33.3139C40.5014 33.4876 40.2268 33.4975 39.9714 33.3435C39.8811 33.2808 39.8175 33.1853 39.7806 33.0572C39.7436 32.9291 39.677 32.804 39.5807 32.6819C39.5093 32.5693 39.4208 32.4644 39.3151 32.3672C39.2342 32.2795 39.1723 32.142 39.1294 31.9545C38.7081 31.9373 38.2632 31.9824 37.7946 32.0898C37.3604 32.1818 36.909 32.2815 36.4404 32.3889C35.9718 32.4964 35.4955 32.5866 35.0115 32.6597C34.5179 32.7576 34.0403 32.7761 33.5787 32.715C33.0826 32.6694 32.7554 32.5168 32.5973 32.2571C32.4546 32.0318 32.2964 31.7722 32.1227 31.4781C32.005 31.2623 31.9306 31.12 31.8996 31.0512C31.8592 31.0074 31.8661 30.8389 31.9203 30.5457C32.0536 29.9688 32.2635 29.3782 32.5498 28.7738C32.8705 28.1539 33.2661 27.5624 33.7364 26.9993C35.0786 25.3409 36.8326 24.5518 38.9984 24.6319C39.2511 24.6422 39.4803 24.7149 39.6857 24.8499C39.9256 24.9694 40.1388 25.1216 40.3254 25.3065C40.5119 25.4913 40.6765 25.6964 40.8193 25.9217C40.9869 26.1564 41.1296 26.3817 41.2474 26.5975L41.6613 27.3107C41.9468 26.9341 42.1046 26.4806 42.1347 25.9501C42.1992 25.4042 42.1748 24.8672 42.0613 24.3393C41.9573 23.7865 41.797 23.2693 41.5804 22.7879C41.3637 22.3064 41.117 21.9418 40.8402 21.6942C39.5686 21.2118 38.3082 21.0758 37.059 21.2864C35.8441 21.4815 34.5832 21.873 33.2763 22.461C33.2075 22.4919 33.131 22.5057 33.0468 22.5022C32.9874 22.5082 32.9281 22.5143 32.8688 22.5203C32.7751 22.5418 32.6831 22.5211 32.5928 22.4583C32.5275 22.405 32.5434 22.3255 32.6406 22.2198C33.0928 21.4787 33.6616 20.8816 34.3469 20.4286C35.0416 19.9506 35.778 19.5882 36.5561 19.3415C37.3343 19.0948 38.1214 18.9371 38.9175 18.8684C39.7137 18.7997 40.4643 18.8135 41.1693 18.9098C41.2879 18.8978 41.3846 18.906 41.4594 18.9344C41.5686 18.9473 41.6855 18.9774 41.8102 19.0247C41.9847 19.0909 42.1279 19.2022 42.2396 19.3587C42.3514 19.5152 42.4834 19.6936 42.6355 19.894C42.8376 20.1132 43.0301 20.3574 43.2132 20.6265C43.4058 20.8707 43.5593 21.1428 43.6736 21.4429C43.7724 21.7086 43.8464 21.9648 43.8953 22.2116C43.9443 22.4583 43.9856 22.6879 44.0191 22.9002ZM40.2219 29.0748C40.1953 28.6939 40.0719 28.3049 39.8519 27.9076C39.6567 27.5199 39.3833 27.188 39.0317 26.912C38.6896 26.611 38.2674 26.4081 37.7653 26.3032C37.2882 26.2077 36.7418 26.2571 36.1262 26.4514C35.8536 26.7187 35.5669 27.0235 35.2659 27.3657C34.9744 27.6829 34.7156 28.0268 34.4895 28.3973C34.2728 28.7429 34.0888 29.1152 33.9374 29.5141C33.8205 29.8976 33.7753 30.2797 33.8019 30.6606C34.8723 30.6959 35.9367 30.6719 36.9951 30.5886C38.0535 30.5053 38.9683 30.4246 39.7395 30.3464C39.9458 30.2535 40.0804 30.162 40.1432 30.0717C40.2059 29.9814 40.2266 29.8894 40.2051 29.7957C40.2085 29.7115 40.1918 29.6053 40.1548 29.4772C40.1428 29.3585 40.1652 29.2244 40.2219 29.0748ZM53.594 18.7893C53.3824 20.2492 53.1085 21.6854 52.7722 23.098C52.4359 24.5106 52.0872 25.9184 51.726 27.3215C51.3648 28.7247 51.0036 30.1278 50.6424 31.5309C50.3061 32.9435 50.0197 34.375 49.7832 35.8254C49.6103 36.1306 49.4736 36.3782 49.373 36.5682C49.2724 36.7582 49.1628 36.8592 49.0441 36.8712C48.8911 36.8987 48.7333 36.9387 48.5708 36.9911C48.4427 37.0281 48.3068 37.0479 48.1633 37.0504C48.1039 37.0564 48.0399 37.0749 47.9711 37.1059C47.8929 37.1617 47.8116 37.188 47.7274 37.1845C47.668 37.1905 47.6182 37.1716 47.5778 37.1278C47.5373 37.0839 47.5034 36.9855 47.4759 36.8324C47.5414 35.2315 47.6489 33.6324 47.7987 32.0349C47.9733 30.447 48.215 28.8702 48.5238 27.3046C48.8575 25.7484 49.2707 24.2082 49.7635 22.6838C50.2906 21.144 50.9317 19.6046 51.6867 18.0657C51.8286 17.6917 52.0306 17.4974 52.2929 17.4828C52.4115 17.4708 52.522 17.5555 52.6243 17.7369C52.7515 17.9278 52.868 18.0718 52.9737 18.169C53.1199 18.31 53.2381 18.4119 53.3284 18.4747C53.4281 18.5125 53.5167 18.6174 53.594 18.7893ZM61.8481 21.9209C61.6365 23.3808 61.3625 24.817 61.0263 26.2295C60.69 27.6421 60.3412 29.05 59.98 30.4531C59.6188 31.8562 59.2576 33.2593 58.8964 34.6624C58.5601 36.075 58.2737 37.5065 58.0372 38.9569C57.8644 39.2621 57.7276 39.5097 57.627 39.6997C57.5264 39.8897 57.4168 39.9907 57.2982 40.0028C57.1451 40.0303 56.9873 40.0702 56.8248 40.1227C56.6967 40.1596 56.5609 40.1794 56.4173 40.182C56.358 40.188 56.2939 40.2065 56.2251 40.2374C56.1469 40.2933 56.0657 40.3195 55.9814 40.316C55.9221 40.3221 55.8722 40.3031 55.8318 40.2593C55.7914 40.2154 55.7574 40.117 55.7299 39.964C55.7954 38.3631 55.903 36.7639 56.0527 35.1665C56.2274 33.5785 56.4691 32.0017 56.7778 30.4361C57.1115 28.8799 57.5248 27.3397 58.0175 25.8154C58.5447 24.2755 59.1857 22.7362 59.9407 21.1972C60.0826 20.8233 60.2847 20.629 60.5469 20.6144C60.6656 20.6023 60.776 20.687 60.8783 20.8685C61.0056 21.0593 61.1221 21.2034 61.2278 21.3005C61.3739 21.4415 61.4922 21.5434 61.5824 21.6062C61.6822 21.644 61.7707 21.7489 61.8481 21.9209ZM67.1148 49.5027C66.9265 49.7735 66.7571 49.9945 66.6066 50.1655C66.4467 50.3616 66.2962 50.5326 66.1552 50.6788C66.0142 50.8249 65.8654 50.9539 65.709 51.0657C65.5525 51.1774 65.3693 51.3218 65.1595 51.4989C64.997 51.5514 64.789 51.6863 64.5353 51.9038C64.2971 52.1557 64.0345 52.2843 63.7473 52.2894C62.9701 52.3083 62.1198 52.2566 61.1964 52.1345C60.2979 52.0218 59.5887 51.824 59.0685 51.5411C59.0281 51.4972 58.9705 51.4611 58.8957 51.4327C58.8364 51.4387 58.8037 51.4121 58.7977 51.3528C58.7676 51.0561 58.873 50.8537 59.1137 50.7453C59.3699 50.6714 59.5608 50.5442 59.6863 50.3637C59.7835 50.2579 59.8901 50.1272 60.0062 49.9716C60.1128 49.8409 60.2474 49.7494 60.4099 49.697C60.7065 49.6669 61.1153 49.6794 61.6363 49.7344C62.1479 49.8144 62.6659 49.8398 63.1904 49.8106C63.7398 49.7909 64.2677 49.6775 64.7741 49.4703C65.296 49.2975 65.7328 48.9356 66.0844 48.3845C66.5273 47.6683 66.9736 46.8679 67.4233 45.9833C67.873 45.0986 68.3025 44.192 68.7118 43.2635C69.1461 42.3444 69.5507 41.4284 69.9256 40.5153C70.3255 39.6117 70.6892 38.7658 71.0168 37.9774C70.7537 38.2198 70.4094 38.4885 69.9838 38.7833C69.5676 39.0533 69.1265 39.3137 68.6605 39.5648C68.1945 39.8158 67.7427 40.0294 67.3051 40.2056C66.8674 40.3818 66.4831 40.4927 66.1521 40.5383C65.7617 40.5898 65.4337 40.665 65.1681 40.7639C64.9118 40.8378 64.6509 40.9242 64.3852 41.023C64.1883 41.091 63.9889 41.0153 63.7868 40.796C63.5848 40.5768 63.4455 40.2672 63.3691 39.8674C63.296 39.3834 63.2685 38.8168 63.2866 38.1677C63.3142 37.4936 63.3512 36.7946 63.3977 36.0707C63.4536 35.3219 63.5143 34.5605 63.5797 33.7868C63.6546 32.988 63.7152 32.2267 63.7617 31.5028C63.7669 30.9629 63.9071 30.631 64.1822 30.5072C64.423 30.3989 64.6555 30.3873 64.8799 30.4724C65.0794 30.5481 65.1679 30.653 65.1456 30.7871C65.1576 30.9058 65.2586 31.0154 65.4486 31.116C65.6137 31.2072 65.7147 31.3168 65.7517 31.4449C65.8136 31.5825 65.8926 31.7123 65.9889 31.8344C66.1007 31.9909 66.1626 32.1284 66.1746 32.2471C66.2116 32.3752 66.2202 32.5781 66.2004 32.8558C66.1453 33.3768 66.0748 33.8635 65.9887 34.3157C65.9371 34.7524 65.873 35.1845 65.7965 35.6118C65.7449 36.0485 65.6885 36.4978 65.6275 36.9594C65.6008 37.4057 65.5724 37.894 65.5422 38.4245C66.3857 38.2311 67.156 37.9672 67.8533 37.6328C68.585 37.2829 69.2544 36.9094 69.8614 36.5122C70.5028 36.0996 71.0849 35.693 71.6077 35.2924C72.1399 34.8668 72.6378 34.4567 73.1012 34.0621C73.2577 33.9504 73.4627 33.7857 73.7164 33.5682C73.97 33.3507 74.1828 33.2033 74.3548 33.1259C74.458 33.0795 74.5487 33.0284 74.6269 32.9725C74.7146 32.8917 74.8053 32.8405 74.8991 32.819C74.961 32.9566 74.9807 33.0925 74.9584 33.2266C74.936 33.3607 74.9089 33.5073 74.8771 33.6663C74.7661 34.1091 74.5537 34.5562 74.2399 35.0075C73.9604 35.4434 73.7781 35.7736 73.693 35.9979C73.2673 37.1199 72.8322 38.2668 72.3876 39.4386C71.943 40.6105 71.4611 41.7681 70.9417 42.9116C70.4223 44.055 69.853 45.1796 69.2339 46.2852C68.6054 47.4157 67.899 48.4882 67.1148 49.5027ZM95.0222 44.4324C95.0497 44.5854 95.0273 44.7195 94.9551 44.8347C94.9173 44.9345 94.8717 45.017 94.8184 45.0823C94.5338 45.2311 94.315 45.3192 94.1619 45.3467C94.0089 45.3742 93.7544 45.406 93.3984 45.442C93.3047 45.4635 93.211 45.485 93.1173 45.5065C93.0485 45.5375 92.9767 45.5387 92.9019 45.5104C92.7773 45.4631 92.6156 45.2877 92.4171 44.9841C92.2434 44.6901 92.0448 44.3866 91.8213 44.0736C91.5978 43.7606 91.3304 43.4881 91.0192 43.2559C90.7329 43.0332 90.4195 42.9571 90.0791 43.0276C89.6629 43.2975 89.2167 43.6844 88.7403 44.1882C88.2734 44.667 87.8422 45.2022 87.4467 45.7937C87.0761 46.3946 86.788 47.0412 86.5825 47.7333C86.3769 48.4254 86.3399 49.1243 86.4714 49.8302C87.8607 50.5285 89.2346 50.7787 90.5931 50.5811C91.961 50.3585 93.2984 49.9532 94.6053 49.3652C94.5391 49.5398 94.4277 49.6829 94.2712 49.7947C94.1491 49.891 94.0223 49.9997 93.8908 50.1209C93.7059 50.3075 93.5086 50.4893 93.2988 50.6664C93.1234 50.828 92.8981 50.9707 92.623 51.0945C92.132 51.3361 91.5959 51.5463 91.0147 51.7251C90.4584 51.9133 89.8789 52.05 89.2762 52.135C88.7079 52.2046 88.1383 52.2024 87.5674 52.1285C87.012 52.0889 86.4945 51.9496 86.0147 51.7105C85.7499 51.5815 85.5789 51.431 85.5015 51.2591C85.4396 51.1215 85.2952 50.9384 85.0682 50.7097C84.9564 50.5532 84.7901 50.3902 84.5691 50.2208C84.3731 50.0609 84.2364 49.895 84.1591 49.723C84.0233 49.3292 83.9734 48.8968 84.0096 48.4256C84.0431 47.8109 84.1829 47.1794 84.4288 46.5311C84.6748 45.8829 84.9487 45.2738 85.2505 44.7038C85.5867 44.1183 85.9242 43.6046 86.263 43.1627C86.6267 42.7303 86.9229 42.4006 87.1516 42.1736C87.4242 41.9062 87.7526 41.7171 88.1369 41.6062C88.5307 41.4704 88.94 41.369 89.3647 41.302C89.8144 41.2444 90.2593 41.1993 90.6995 41.1666C91.1397 41.134 91.5503 41.1044 91.9311 41.0778C93.2027 41.5602 94.2331 42.6784 95.0222 44.4324ZM104.433 38.0774C104.222 39.5372 103.948 40.9735 103.611 42.386C103.275 43.7986 102.926 45.2065 102.565 46.6096C102.204 48.0127 101.843 49.4158 101.481 50.8189C101.145 52.2315 100.859 53.663 100.622 55.1134C100.449 55.4186 100.313 55.6662 100.212 55.8562C100.111 56.0462 100.002 56.1472 99.8832 56.1592C99.7302 56.1867 99.5724 56.2267 99.4099 56.2792C99.2818 56.3161 99.1459 56.3359 99.0024 56.3384C98.943 56.3445 98.879 56.3629 98.8102 56.3939C98.7319 56.4498 98.6507 56.476 98.5664 56.4725C98.5071 56.4786 98.4572 56.4596 98.4168 56.4158C98.3764 56.3719 98.3425 56.2735 98.315 56.1204C98.3804 54.5196 98.488 52.9204 98.6377 51.323C98.8124 49.735 99.0541 48.1582 99.3629 46.5926C99.6966 45.0364 100.11 43.4962 100.603 41.9718C101.13 40.432 101.771 38.8927 102.526 37.3537C102.668 36.9797 102.87 36.7855 103.132 36.7709C103.251 36.7588 103.361 36.8435 103.463 37.0249C103.591 37.2158 103.707 37.3598 103.813 37.457C103.959 37.598 104.077 37.6999 104.167 37.7627C104.267 37.8005 104.356 37.9054 104.433 38.0774ZM112.397 47.3876C112.52 47.6627 112.534 47.8532 112.436 47.9589C112.364 48.0741 112.271 48.0956 112.155 48.0234C111.831 47.9004 111.455 47.8007 111.028 47.7241C110.635 47.6321 110.205 47.5259 109.737 47.4055C109.304 47.2696 108.855 47.0993 108.391 46.8947C107.927 46.69 107.486 46.423 107.069 46.0937C106.945 45.8186 107.012 45.644 107.268 45.5701C107.558 45.4807 107.827 45.2976 108.075 45.0208C108.235 44.8248 108.392 44.713 108.545 44.6855C108.732 44.6425 108.905 44.637 109.064 44.6688C109.339 44.7728 109.651 44.9629 110.003 45.2389C110.389 45.4994 110.715 45.6942 110.979 45.8232C111.384 46.0338 111.705 46.2411 111.941 46.4448C112.187 46.6237 112.339 46.9379 112.397 47.3876ZM109.681 52.1759C109.614 52.8061 109.527 53.3722 109.422 53.8743C109.342 54.3859 109.229 54.8708 109.084 55.329C108.973 55.7718 108.833 56.2176 108.662 56.6664C108.517 57.1246 108.345 57.6155 108.146 58.1391C108.109 58.2389 108.004 58.3274 107.832 58.4048C107.694 58.4667 107.577 58.5505 107.48 58.6562C107.295 58.8428 107.155 58.9468 107.062 58.9683C106.993 58.9992 106.87 59.0237 106.692 59.0418C106.286 59.0589 105.894 59.1526 105.515 59.3228C105.371 58.7261 105.355 58.0925 105.467 57.4219C105.603 56.7607 105.774 56.0841 105.98 55.392C106.21 54.7094 106.428 54.022 106.634 53.3299C106.874 52.6223 107.042 51.916 107.138 51.211C107.196 50.8336 107.311 50.6062 107.483 50.5288C107.655 50.4515 107.825 50.4162 107.993 50.4231C108.187 50.4395 108.36 50.5478 108.512 50.7482C108.689 50.9579 108.854 51.163 109.006 51.3634C109.142 51.5293 109.281 51.6531 109.421 51.7348C109.596 51.801 109.682 51.948 109.681 52.1759ZM122.67 54.9216C122.697 55.0746 122.675 55.2088 122.603 55.324C122.565 55.4237 122.519 55.5062 122.466 55.5716C122.181 55.7203 121.962 55.8084 121.809 55.8359C121.656 55.8634 121.402 55.8952 121.046 55.9313C120.952 55.9528 120.858 55.9743 120.765 55.9958C120.696 56.0267 120.624 56.028 120.549 55.9996C120.425 55.9523 120.263 55.7769 120.064 55.4734C119.891 55.1793 119.692 54.8758 119.469 54.5629C119.245 54.2499 118.978 53.9773 118.667 53.7452C118.38 53.5225 118.067 53.4463 117.726 53.5168C117.31 53.7868 116.864 54.1736 116.388 54.6774C115.921 55.1563 115.49 55.6914 115.094 56.2829C114.723 56.8839 114.435 57.5304 114.23 58.2225C114.024 58.9146 113.987 59.6136 114.119 60.3195C115.508 61.0177 116.882 61.268 118.24 61.0703C119.608 60.8478 120.946 60.4425 122.253 59.8545C122.186 60.029 122.075 60.1722 121.919 60.2839C121.797 60.3802 121.67 60.489 121.538 60.6102C121.353 60.7967 121.156 60.9786 120.946 61.1557C120.771 61.3173 120.545 61.46 120.27 61.5838C119.779 61.8253 119.243 62.0355 118.662 62.2143C118.106 62.4025 117.526 62.5392 116.924 62.6243C116.355 62.6939 115.786 62.6917 115.215 62.6177C114.659 62.5781 114.142 62.4388 113.662 62.1997C113.397 62.0708 113.226 61.9203 113.149 61.7483C113.087 61.6108 112.943 61.4276 112.716 61.1989C112.604 61.0424 112.437 60.8795 112.217 60.7101C112.021 60.5502 111.884 60.3842 111.806 60.2123C111.671 59.8185 111.621 59.386 111.657 58.9149C111.691 58.3001 111.83 57.6686 112.076 57.0204C112.322 56.3721 112.596 55.763 112.898 55.193C113.234 54.6075 113.572 54.0939 113.91 53.652C114.274 53.2195 114.57 52.8898 114.799 52.6629C115.072 52.3955 115.4 52.2064 115.784 52.0955C116.178 51.9597 116.587 51.8582 117.012 51.7912C117.462 51.7336 117.907 51.6885 118.347 51.6559C118.787 51.6233 119.198 51.5936 119.579 51.567C120.85 52.0494 121.88 53.1676 122.67 54.9216ZM129.754 49.7375C129.87 50.4089 129.881 51.0551 129.789 51.6758C129.721 52.306 129.592 52.9844 129.402 53.7108C129.236 54.4468 129.038 55.27 128.807 56.1805C128.61 57.0755 128.436 58.136 128.284 59.362C128.829 58.8273 129.517 58.2182 130.347 57.5347C131.201 56.8607 132.09 56.2852 133.012 55.8081C133.341 55.619 133.7 55.4986 134.091 55.4471C134.506 55.405 134.891 55.3659 135.247 55.3298C135.46 55.2963 135.647 55.2533 135.81 55.2009C135.997 55.1579 136.2 55.1493 136.418 55.1751C136.199 55.3771 135.989 55.5542 135.789 55.7064C135.623 55.8431 135.44 55.9875 135.24 56.1397C134.789 56.4251 134.277 56.7586 133.705 57.1403C133.157 57.5315 132.6 57.9476 132.033 58.3886C131.501 58.8141 130.986 59.232 130.488 59.642C130.025 60.0366 129.647 60.3925 129.356 60.7098L130.827 60.3269C131.449 60.1919 132.012 60.2487 132.517 60.4972C132.832 60.6451 133.118 60.8678 133.376 61.1653C133.668 61.4473 133.921 61.7573 134.135 62.0952C134.349 62.4331 134.541 62.7912 134.712 63.1695C134.891 63.5229 135.051 63.8544 135.19 64.1639C135.594 64.6024 135.946 65.178 136.246 65.8908C136.546 66.6036 136.815 67.2476 137.053 67.8228C137.131 67.9947 137.138 68.1258 137.075 68.2161C137.012 68.3064 136.981 68.4654 136.98 68.6933C136.982 68.8369 136.933 69.0037 136.833 69.1937C136.732 69.3837 136.616 69.5393 136.484 69.6605C136.309 69.8221 136.18 69.973 136.099 70.1131C136.052 70.2378 135.998 70.3031 135.939 70.3091C135.539 69.5585 135.091 68.7469 134.595 67.8742C134.124 67.0109 133.626 66.1804 133.102 65.3825C132.612 64.5691 132.123 63.8275 131.636 63.1577C131.173 62.4974 130.743 61.9776 130.345 61.5984C130.112 61.3104 129.713 61.273 129.147 61.4861C128.581 61.6993 128.104 62.1313 127.714 62.7821C127.629 63.0065 127.53 63.2683 127.416 63.5675C127.337 63.8512 127.174 64.1315 126.926 64.4083C126.829 64.5141 126.72 64.6869 126.601 64.9267C126.516 65.1511 126.355 65.2754 126.117 65.2994L125.183 65.8436C125.192 64.3923 125.282 62.9148 125.453 61.4111C125.649 59.9168 125.888 58.4243 126.168 56.9334C126.449 55.4426 126.749 53.9737 127.07 52.5268C127.416 51.0893 127.755 49.7064 128.088 48.378L128.297 47.6017C128.363 47.4272 128.401 47.3274 128.41 47.3025C128.454 47.2621 128.618 47.2814 128.902 47.3606C128.957 47.4388 129.037 47.5686 129.139 47.7501C129.276 47.916 129.358 48.0755 129.385 48.2285C129.444 48.4504 129.524 48.652 129.626 48.8334C129.729 49.0148 129.771 49.3162 129.754 49.7375ZM151.322 63.6102C151.343 64.531 151.316 65.5047 151.24 66.5312C151.189 67.5672 151.039 68.5654 150.789 69.5257C150.573 70.4706 150.242 71.3433 149.795 72.1437C149.374 72.9535 148.808 73.5803 148.098 74.0239C147.804 74.1975 147.529 74.2074 147.274 74.0535C147.184 73.9907 147.12 73.8953 147.083 73.7671C147.046 73.639 146.98 73.5139 146.883 73.3918C146.812 73.2792 146.723 73.1743 146.618 73.0771C146.537 72.9894 146.475 72.8519 146.432 72.6644C146.011 72.6472 145.566 72.6923 145.097 72.7998C144.663 72.8917 144.212 72.9914 143.743 73.0989C143.274 73.2063 142.798 73.2965 142.314 73.3696C141.821 73.4676 141.343 73.486 140.881 73.4249C140.385 73.3793 140.058 73.2267 139.9 72.967C139.757 72.7418 139.599 72.4821 139.425 72.1881C139.308 71.9722 139.233 71.8299 139.202 71.7612C139.162 71.7173 139.169 71.5488 139.223 71.2556C139.356 70.6787 139.566 70.0881 139.852 69.4837C140.173 68.8638 140.569 68.2723 141.039 67.7092C142.381 66.0508 144.135 65.2617 146.301 65.3418C146.554 65.3521 146.783 65.4248 146.988 65.5598C147.228 65.6793 147.441 65.8315 147.628 66.0164C147.815 66.2012 147.979 66.4063 148.122 66.6316C148.29 66.8663 148.432 67.0916 148.55 67.3074L148.964 68.0206C149.249 67.644 149.407 67.1905 149.437 66.66C149.502 66.1141 149.477 65.5772 149.364 65.0493C149.26 64.4964 149.1 63.9793 148.883 63.4978C148.666 63.0163 148.42 62.6517 148.143 62.4041C146.871 61.9217 145.611 61.7857 144.362 61.9963C143.147 62.1914 141.886 62.5829 140.579 63.1709C140.51 63.2018 140.434 63.2156 140.349 63.2121C140.29 63.2182 140.231 63.2242 140.171 63.2302C140.078 63.2517 139.986 63.231 139.895 63.1683C139.83 63.1149 139.846 63.0354 139.943 62.9297C140.395 62.1886 140.964 61.5915 141.65 61.1385C142.344 60.6605 143.081 60.2982 143.859 60.0515C144.637 59.8048 145.424 59.6471 146.22 59.5783C147.016 59.5096 147.767 59.5234 148.472 59.6198C148.591 59.6077 148.687 59.6159 148.762 59.6443C148.871 59.6572 148.988 59.6873 149.113 59.7346C149.287 59.8008 149.43 59.9122 149.542 60.0686C149.654 60.2251 149.786 60.4035 149.938 60.6039C150.14 60.8231 150.333 61.0673 150.516 61.3364C150.708 61.5806 150.862 61.8528 150.976 62.1528C151.075 62.4185 151.149 62.6747 151.198 62.9215C151.247 63.1682 151.288 63.3978 151.322 63.6102ZM147.525 69.7847C147.498 69.4038 147.375 69.0148 147.154 68.6176C146.959 68.2298 146.686 67.8979 146.334 67.6219C145.992 67.321 145.57 67.118 145.068 67.0131C144.591 66.9176 144.044 66.967 143.429 67.1613C143.156 67.4286 142.869 67.7334 142.569 68.0756C142.277 68.3928 142.018 68.7367 141.792 69.1072C141.575 69.4529 141.391 69.8251 141.24 70.224C141.123 70.6075 141.078 70.9897 141.105 71.3705C142.175 71.4059 143.239 71.3819 144.298 71.2985C145.356 71.2152 146.271 71.1345 147.042 71.0563C147.248 70.9635 147.383 70.8719 147.446 70.7816C147.509 70.6914 147.529 70.5994 147.508 70.5056C147.511 70.4214 147.494 70.3152 147.457 70.1871C147.445 70.0684 147.468 69.9343 147.525 69.7847ZM159.693 58.2727C159.724 58.3415 159.748 58.3931 159.763 58.4275C159.804 58.4713 159.81 58.5307 159.781 58.6055C159.488 59.3784 159.218 60.2029 158.971 61.079C158.724 61.955 158.473 62.8436 158.216 63.7446C157.97 64.6207 157.71 65.492 157.439 66.3587C157.192 67.2348 156.926 68.0468 156.643 68.7948C156.912 68.6117 157.22 68.4006 157.567 68.1616C157.94 67.9321 158.34 67.7417 158.768 67.5904C159.196 67.4391 159.63 67.3471 160.071 67.3145C160.545 67.2664 161.024 67.3197 161.507 67.4745C161.748 67.3662 161.943 67.3404 162.093 67.3972C162.352 67.4668 162.555 67.644 162.704 67.9286C162.862 68.1882 163.019 68.49 163.173 68.8339C163.375 69.281 163.502 69.7715 163.556 70.3055C163.611 70.8394 163.585 71.3574 163.48 71.8595C163.375 72.3616 163.188 72.8181 162.918 73.229C162.673 73.6495 162.327 73.9602 161.88 74.1614C161.196 74.9859 160.445 75.6134 159.625 76.0441C158.815 76.4499 158.025 76.6918 157.253 76.77L154.584 77.0407C154.406 77.0587 154.218 77.1017 154.022 77.1696C153.859 77.222 153.689 77.2572 153.511 77.2753C153.367 77.2779 153.277 77.2151 153.24 77.087C153.219 76.9933 153.155 76.8978 153.049 76.8007C152.797 76.5625 152.681 76.3046 152.701 76.0268C152.711 75.7741 152.732 75.5682 152.764 75.4091C152.796 75.2501 152.839 75.0239 152.893 74.7308C153.082 73.405 153.394 71.983 153.827 70.4647C154.286 68.9558 154.777 67.4736 155.3 66.018C155.858 64.547 156.405 63.1431 156.941 61.8062C157.511 60.4538 158.01 59.2884 158.439 58.31C158.562 57.9859 158.654 57.7787 158.717 57.6884C158.805 57.6076 158.921 57.5659 159.064 57.5634C159.124 57.5574 159.195 57.5561 159.28 57.5595C159.364 57.563 159.459 57.6133 159.565 57.7104C159.63 57.7637 159.656 57.845 159.643 57.9542C159.665 58.0479 159.681 58.1541 159.693 58.2727ZM162.095 71.6762C162.152 71.5267 162.148 71.3113 162.084 71.0301C162.054 70.7335 161.981 70.4352 161.867 70.1351C161.778 69.8445 161.654 69.5694 161.496 69.3097C161.337 69.05 161.181 68.8622 161.025 68.7461C160.722 68.7168 160.302 68.7714 159.765 68.9098C159.237 69.0232 158.77 69.2025 158.363 69.4475C157.309 70.0458 156.572 70.8217 156.154 71.7751C155.735 72.7286 155.508 73.7405 155.473 74.8109C155.725 74.8212 156.059 74.8054 156.475 74.7633C156.915 74.7306 157.377 74.6778 157.861 74.6047C158.345 74.5317 158.817 74.4539 159.276 74.3714C159.744 74.264 160.141 74.1578 160.466 74.053C160.863 73.8329 161.17 73.55 161.387 73.2044C161.613 72.8339 161.849 72.3245 162.095 71.6762ZM172.474 63.8917C172.263 65.3516 171.989 66.7878 171.652 68.2004C171.316 69.613 170.967 71.0208 170.606 72.4239C170.245 73.827 169.884 75.2302 169.523 76.6333C169.186 78.0458 168.9 79.4773 168.663 80.9277C168.491 81.233 168.354 81.4806 168.253 81.6706C168.153 81.8606 168.043 81.9616 167.924 81.9736C167.771 82.0011 167.613 82.0411 167.451 82.0935C167.323 82.1305 167.187 82.1502 167.043 82.1528C166.984 82.1588 166.92 82.1773 166.851 82.2082C166.773 82.2641 166.692 82.2903 166.608 82.2869C166.548 82.2929 166.498 82.274 166.458 82.2301C166.418 82.1863 166.384 82.0878 166.356 81.9348C166.422 80.3339 166.529 78.7348 166.679 77.1373C166.854 75.5493 167.095 73.9725 167.404 72.4069C167.738 70.8508 168.151 69.3105 168.644 67.7862C169.171 66.2464 169.812 64.707 170.567 63.1681C170.709 62.7941 170.911 62.5998 171.173 62.5852C171.292 62.5732 171.402 62.6579 171.504 62.8393C171.632 63.0302 171.748 63.1742 171.854 63.2714C172 63.4124 172.118 63.5143 172.209 63.577C172.308 63.6149 172.397 63.7198 172.474 63.8917ZM183.917 75.4204C184.025 75.6612 184.112 75.9221 184.176 76.2032C184.25 76.4595 184.294 76.7187 184.309 76.9809C184.329 77.5303 184.249 78.0419 184.069 78.5156C183.924 78.9738 183.541 79.4561 182.921 79.9625C182.232 80.4998 181.462 80.8776 180.609 81.0959C179.781 81.3237 178.957 81.3533 178.136 81.1847C177.55 81.0764 177.001 80.8683 176.491 80.5604C175.99 80.2277 175.561 79.7797 175.204 79.2165C175.007 79.2844 174.811 79.4241 174.617 79.6356C174.457 79.8316 174.352 80.0341 174.301 80.243C174.218 80.611 174.196 81.0447 174.235 81.5443C174.308 82.0283 174.441 82.3924 174.634 82.6366C174.991 82.972 175.572 83.2067 176.377 83.3409C177.207 83.4845 178.102 83.5676 179.063 83.59C180.059 83.597 181.039 83.5695 182.004 83.5077C183.003 83.4304 183.854 83.3681 184.556 83.3209C184.499 83.4705 184.424 83.556 184.33 83.5775C184.262 83.6084 184.154 83.6673 184.007 83.7541C183.835 83.8315 183.641 83.9291 183.425 84.0469C183.209 84.1646 182.978 84.248 182.731 84.297C182.425 84.352 182.162 84.4805 181.943 84.6825C181.733 84.8596 181.416 84.9817 180.991 85.0487C180.423 85.1183 179.838 85.1957 179.235 85.2808C178.667 85.3504 178.103 85.4075 177.544 85.4522C176.995 85.4719 176.447 85.4495 175.901 85.385C175.39 85.305 174.906 85.1502 174.452 84.9206C174.146 84.7478 173.905 84.5564 173.728 84.3466C173.576 84.1463 173.398 83.8647 173.193 83.5019C173.091 83.3205 172.963 83.1296 172.811 82.9292C172.659 82.7289 172.557 82.5475 172.504 82.385C172.317 81.6009 172.281 80.8314 172.396 80.0765C172.521 79.2967 172.753 78.5719 173.093 77.9022C173.467 77.217 173.919 76.5898 174.448 76.0207C174.987 75.4266 175.59 74.928 176.257 74.5248C176.629 74.2953 177.051 74.0847 177.523 73.893C178.029 73.6858 178.542 73.538 179.06 73.4495C179.613 73.3455 180.155 73.3085 180.685 73.3387C181.241 73.3783 181.763 73.5051 182.252 73.7192C182.442 73.8198 182.593 73.9484 182.705 74.1049C182.851 74.2459 183.005 74.4041 183.166 74.5795C183.272 74.6767 183.393 74.8082 183.53 74.9742C183.701 75.1246 183.83 75.2734 183.917 75.4204ZM181.995 77.2155C182.031 76.9722 181.969 76.7207 181.811 76.461C181.653 76.2013 181.455 75.9696 181.219 75.7658C180.992 75.5371 180.746 75.3583 180.481 75.2293C180.217 75.1003 180.012 75.0371 179.869 75.0397C179.641 75.0388 179.352 75.0861 179.002 75.1815C178.687 75.2614 178.357 75.3787 178.013 75.5335C177.694 75.6977 177.366 75.8868 177.028 76.1008C176.724 76.2994 176.475 76.5045 176.281 76.716C176.203 76.7718 176.105 76.8776 175.989 77.0332C175.908 77.1733 175.878 77.2903 175.899 77.384C176.056 77.8715 176.434 78.2287 177.033 78.4558C177.606 78.6733 178.269 78.7679 179.021 78.7396C179.798 78.7208 180.381 78.6138 180.769 78.4186C180.813 78.3782 180.896 78.3099 181.018 78.2136C181.165 78.1268 181.304 78.0227 181.435 77.9015C181.567 77.7803 181.686 77.6544 181.793 77.5237C181.924 77.4025 181.992 77.2997 181.995 77.2155ZM196.485 81.7714C196.218 82.0981 196.009 82.347 195.859 82.5181C195.708 82.6891 195.587 82.6715 195.494 82.4652C195.277 81.9837 194.995 81.4489 194.648 80.8608C194.301 80.2727 193.785 79.7916 193.099 79.4175C192.645 79.1879 192.11 79.0564 191.495 79.0228C190.915 78.9737 190.388 79.159 189.915 79.5785C189.496 79.9327 189.255 80.4546 189.193 81.1441C189.097 81.8491 189.241 82.4458 189.626 82.9342C190.046 83.4071 190.534 83.849 191.091 84.26C191.682 84.6556 192.279 85.0386 192.88 85.4092C193.506 85.7893 193.994 86.2313 194.345 86.7351C194.466 86.8667 194.531 87.0339 194.539 87.2368C194.582 87.4242 194.63 87.5992 194.682 87.7617C194.75 87.9586 194.815 88.1258 194.877 88.2634C194.964 88.4104 195.019 88.6026 195.043 88.8399C195.061 89.0178 195.078 89.2379 195.092 89.5002C195.116 89.7375 195.056 89.9713 194.912 90.2017C194.714 90.4975 194.27 90.7283 193.58 90.8942C192.09 91.213 190.599 91.3462 189.107 91.2936C187.606 91.266 186.177 90.8236 184.819 89.9663C184.663 89.8502 184.53 89.6 184.419 89.2157C184.299 88.8563 184.183 88.5983 184.071 88.4419C183.757 88.0661 183.592 87.6753 183.575 87.2695C183.621 86.5456 183.791 85.7972 184.084 85.0243C184.179 84.775 184.259 84.6769 184.324 84.7303C184.424 84.7681 184.511 84.8012 184.586 84.8296C184.736 84.8863 184.86 85.0476 184.959 85.3132C185.082 85.5884 185.192 85.9009 185.287 86.2508C185.417 86.5853 185.527 86.8978 185.616 87.1884C185.74 87.4636 185.864 87.6248 185.989 87.6721C186.337 88.0323 186.806 88.3385 187.395 88.5904C187.983 88.8424 188.601 89.0195 189.246 89.1219C189.927 89.2088 190.585 89.2019 191.222 89.1014C191.894 88.9854 192.481 88.752 192.985 88.4012C193.032 88.2766 192.94 88.0702 192.707 87.7822C192.499 87.5036 192.208 87.1795 191.835 86.8097C191.471 86.4151 191.058 86.0015 190.594 85.569C190.156 85.1459 189.735 84.7152 189.331 84.2767C188.951 83.8476 188.627 83.425 188.357 83.0089C188.112 82.6022 187.979 82.2381 187.959 81.9165C187.959 81.6887 187.948 81.4561 187.924 81.2188C187.909 80.9566 187.908 80.7709 187.921 80.6617C188.005 80.0659 188.178 79.5328 188.442 79.0625C188.716 78.5673 189.04 78.1628 189.416 77.849C189.792 77.5353 190.214 77.3246 190.683 77.2172C191.161 77.0848 191.651 77.0711 192.153 77.176C192.939 77.3601 193.737 77.6628 194.546 78.0841C195.391 78.49 196.055 79.07 196.539 79.824C196.672 80.0742 196.748 80.2883 196.766 80.4663C196.809 80.6537 196.817 80.8566 196.791 81.075C196.769 81.2091 196.747 81.3432 196.724 81.4774C196.711 81.5866 196.632 81.6846 196.485 81.7714ZM209.574 76.6837C209.093 77.4996 208.564 78.3684 207.986 79.29C207.434 80.2211 206.881 81.1522 206.328 82.0833C205.775 83.0144 205.261 83.9175 204.786 84.7927C204.312 85.6679 203.929 86.4499 203.64 87.1385L202.454 88.5712C202.214 88.6795 202.021 88.8489 201.877 89.0793C201.732 89.3097 201.608 89.5621 201.504 89.8363C201.4 90.1106 201.296 90.3848 201.192 90.6591C201.113 90.9428 201.006 91.1874 200.871 91.3929C200.798 91.5081 200.647 91.6074 200.415 91.6908C200.218 91.7587 200.056 91.8111 199.928 91.8481C199.8 91.885 199.723 91.8988 199.698 91.8893C199.673 91.8798 199.561 91.8373 199.362 91.7616C199.782 90.3525 200.279 88.9296 200.853 87.493C201.436 86.0314 202.059 84.6137 202.723 83.2398C203.421 81.8505 204.163 80.5347 204.948 79.2924C205.743 78.0251 206.562 76.8813 207.405 75.8608C207.577 75.7834 207.73 75.7559 207.864 75.7783C208.033 75.7852 208.236 75.7766 208.473 75.7525C208.873 75.676 209.197 75.6851 209.447 75.7797C209.533 75.9267 209.586 76.0892 209.604 76.2672C209.656 76.4297 209.646 76.5685 209.574 76.6837ZM199.845 96.3515C199.977 96.8296 199.84 97.1911 199.433 97.4361C199.061 97.6656 198.667 97.8014 198.252 97.8435C197.93 97.8641 197.717 97.8259 197.611 97.7287C197.53 97.641 197.425 97.5438 197.294 97.4372C197.213 97.3495 197.062 97.221 196.841 97.0516C196.636 96.9166 196.519 96.7726 196.492 96.6195C196.421 96.279 196.41 95.9326 196.458 95.5801C196.522 95.2619 196.625 94.9159 196.767 94.5419C196.823 94.3923 196.933 94.2913 197.095 94.2389C197.249 94.2114 197.422 94.2058 197.615 94.2221C197.824 94.2729 198.016 94.3314 198.19 94.3976C198.365 94.4638 198.51 94.533 198.625 94.6052C198.821 94.7652 198.92 94.9169 198.923 95.0605C198.916 95.229 198.956 95.3868 199.043 95.5338C199.278 95.9654 199.546 96.238 199.845 96.3515Z" fill="white"/>
</svg>
