<svg width="1440" height="288" viewBox="0 0 1440 288" fill="none" xmlns="http://www.w3.org/2000/svg">
<path d="M0 256L30 250.7C60 245 120 235 180 213.3C240 192 300 160 360 165.3C420 171 480 213 540 240C600 267 660 277 720 250.7C780 224 840 160 900 160C960 160 1020 224 1080 234.7C1140 245 1200 203 1260 202.7C1320 203 1380 245 1410 266.7L1440 288V0H1410C1380 0 1320 0 1260 0C1200 0 1140 0 1080 0C1020 0 960 0 900 0C840 0 780 0 720 0C660 0 600 0 540 0C480 0 420 0 360 0C300 0 240 0 180 0C120 0 60 0 30 0H0V256Z" fill="black"/>
</svg>
